<svg width="64" height="40" viewBox="0 0 64 40" fill="none" xmlns="http://www.w3.org/2000/svg">
<circle opacity="0.201403" cx="20" cy="20" r="20" fill="black"/>
<path fill-rule="evenodd" clip-rule="evenodd" d="M37.484 16.7411L35.7262 11.0003H34.6435C32.8228 11.0003 31.08 11.7608 29.8621 13.0867L26.5051 16.7412H37.484V16.7411ZM48.5629 14.9625L49.2893 16.7415H40.1703L38.4128 11.0003H42.5907C45.2358 11.0003 47.5808 12.5558 48.5629 14.9625ZM52.9363 31.0003C54.8784 31.0003 56.4528 29.4578 56.4528 27.555C56.4528 25.6521 54.8784 24.1096 52.9363 24.1096C50.9941 24.1096 49.4197 25.6521 49.4197 27.555C49.4197 29.4578 50.9941 31.0003 52.9363 31.0003ZM48.7555 19.2621H40.4996V20.655C40.4996 21.3338 39.9673 21.9178 39.2753 21.9497C38.5364 21.9839 37.9265 21.4071 37.9265 20.6907V19.2621H22.3058C21.0658 19.2621 20.0006 20.2311 20.0006 21.5045C20.0006 21.593 20.0003 21.6766 20 21.7566H21.4224C22.1152 21.7566 22.7113 22.2782 22.7439 22.9562C22.7787 23.6801 22.19 24.2776 21.4588 24.2776H20.3167C21.0114 26.2966 22.7863 27.811 24.9267 28.2082C24.5294 24.6511 27.3844 21.5886 30.9792 21.5886C34.6208 21.5886 37.4838 24.7229 37.0182 28.3113H46.8973C46.4323 24.7276 49.2902 21.5886 52.9364 21.5886C56.5307 21.5886 59.386 24.6507 58.9888 28.2079C61.7891 27.6921 63.9149 25.2797 63.9149 22.3886C63.9149 21.4565 63.1949 20.6681 62.2386 20.575L48.7555 19.2621ZM30.9792 31.0003C32.9213 31.0003 34.4957 29.4578 34.4957 27.555C34.4957 25.6521 32.9213 24.1096 30.9792 24.1096C29.037 24.1096 27.4626 25.6521 27.4626 27.555C27.4626 29.4578 29.037 31.0003 30.9792 31.0003Z" fill="#FFD473"/>
</svg>
