<svg width="64" height="40" viewBox="0 0 64 40" fill="none" xmlns="http://www.w3.org/2000/svg">
<circle opacity="0.201403" cx="20" cy="20" r="20" fill="black"/>
<path fill-rule="evenodd" clip-rule="evenodd" d="M45.4751 13.6936C48.7742 13.6928 48.9455 13.6927 49.116 13.7042L49.1445 13.7062C49.1721 13.7082 49.2038 13.7104 49.2508 13.713L48.6199 12.1343C47.6354 9.67062 45.2864 8.0787 42.6356 8.0787H38.5276L40.2107 13.6944C42.5243 13.6944 44.2211 13.694 45.4701 13.6936H45.4721L45.4751 13.6936ZM27.8822 13.6944L29.0044 8.07879H23.439C22.8752 8.07879 22.3769 8.44559 22.2087 8.98425C21.6242 10.8566 21.1971 12.2238 20.8849 13.2234L20.8848 13.2236L20.7377 13.6945H27.8822V13.6944ZM35.836 8.07879L37.519 13.6944H30.5115L31.6334 8.07879H35.836ZM27.65 20.5828V16.275H20.004C19.9993 16.5962 19.9997 17.3775 20.0005 19.3813L20.0007 19.7776H21.4626C22.1745 19.7776 22.7516 20.3554 22.7516 21.068C22.7516 21.7806 22.1745 22.3583 21.4626 22.3583H20.0015L20.0016 23.9927C20.0016 26.0514 21.6156 27.7394 23.6436 27.8566C23.3611 24.7743 25.0052 21.9355 27.65 20.5828ZM61.253 21.0056C61.2181 21.7466 61.808 22.3583 62.5406 22.3583H63.986C63.8224 24.583 62.4162 26.551 60.3863 27.4081C60.5163 23.1965 57.1307 19.7776 53.0015 19.7776C48.6854 19.7776 45.2398 23.4958 45.644 27.8637H38.359C38.7897 23.2086 34.8561 19.3328 30.228 19.8181V16.275H37.9624V17.7374C37.9624 18.4707 38.5735 19.0612 39.3138 19.0262C40.0071 18.9935 40.5405 18.3957 40.5405 17.7009V16.275H48.8412L61.8974 16.9911C62.4393 17.0209 62.9046 17.3876 63.0613 17.9076L63.2567 18.556L63.2579 18.5598C63.4208 19.1 63.5382 19.4894 63.6241 19.7776H62.577C61.8829 19.7776 61.2857 20.3116 61.253 21.0056ZM52.2995 31.9409C54.4623 32.2587 56.545 31.0809 57.4115 29.1015C58.8004 25.9246 56.4592 22.3583 53.0016 22.3583C50.0864 22.3583 47.8207 24.9486 48.2391 27.8637C48.5392 29.9534 50.1922 31.6316 52.2995 31.9409ZM26.239 27.8637C25.8195 24.9402 28.0958 22.3583 31.0015 22.3583C33.919 22.3583 36.1821 24.9509 35.7642 27.8636C35.5231 29.5413 34.4019 30.9926 32.8018 31.6416C30.9655 32.3866 28.8648 31.9241 27.5018 30.4769C26.4851 29.3973 26.304 28.2505 26.2555 27.9432C26.2474 27.8916 26.243 27.8637 26.239 27.8637Z" fill="#26B5C0"/>
</svg>
